<?xml version="1.0" encoding="utf-8"?>
<!-- Generator: Adobe Illustrator 25.1.0, SVG Export Plug-In . SVG Version: 6.00 Build 0)  -->
<svg version="1.1" id="Layer_1" xmlns="http://www.w3.org/2000/svg" xmlns:xlink="http://www.w3.org/1999/xlink" x="0px" y="0px"
	 viewBox="0 0 288 288" style="enable-background:new 0 0 288 288;" xml:space="preserve">
<style type="text/css">
	.st0{fill:#FFFFFF;}
</style>
<g>
	<g>
		<g>
			<path class="st0" d="M41.22,198.41H35.9c-1.94-0.05-4.77-0.05-8.46-0.1v-1.69l3.58-1.54v-26.84l-3.58-1.54V165
				c1.79-0.05,3.98-0.05,6.51-0.1s4.67-0.05,6.41-0.05c9.74,0,14.41,2.48,14.41,7.51c0,2.78-1.09,4.52-3.88,6.26
				c-1.39,0.8-3.43,1.44-5.82,1.69c3.33,0.2,5.77,0.69,7.41,1.64c2.53,1.39,3.83,3.53,3.83,6.31
				C56.33,194.98,51.11,198.41,41.22,198.41z M38.89,167.49v11.83h0.3c4.62,0,7.41-2.39,7.41-6.71
				C46.59,169.03,44.7,167.49,38.89,167.49z M39.53,182.05h-0.65v13.52c0.45,0.05,0.89,0.07,1.34,0.05c5.52,0,7.9-2.14,7.9-7.16
				C48.13,184.04,45.35,182.06,39.53,182.05L39.53,182.05z"/>
			<path class="st0" d="M83.42,196.17c-1.83,1.78-4.3,2.77-6.86,2.73c-2.39,0-4.08-1.69-4.08-3.93v-0.1
				c-1.74,2.64-4.23,4.03-7.16,4.03c-3.78,0-6.37-2.54-6.37-6.32c0-3.18,1.74-5.47,5.12-6.86c2.04-0.8,4.67-1.24,8.4-1.44v-0.79
				c0-1.64-0.3-2.68-0.9-3.48c-0.8-0.99-2.19-1.59-3.78-1.59c-2.24,0-4.18,1.04-6.36,3.68l-1.34-0.75c1.94-5.02,5.72-8,10.44-8
				c3.43,0,6.16,1.19,7.81,3.53c0.99,1.39,1.49,3.23,1.49,5.67v10.84c0,1.19,0.6,1.79,1.64,1.79c0.46-0.01,0.92-0.11,1.34-0.3
				L83.42,196.17z M66.52,191.35c0,2.04,1.14,3.23,3.08,3.23c1.04,0,1.9-0.3,2.88-1.24v-6.86c-2.04,0.05-3.53,0.55-4.57,1.39
				C66.97,188.62,66.52,189.76,66.52,191.35z"/>
			<path class="st0" d="M106.54,191c-2.24,5.42-5.62,7.9-10.64,7.9c-3.53,0-6.26-1.14-8.3-3.38c-2.04-2.24-3.08-5.17-3.08-8.9
				c0-3.88,1.24-7.06,3.78-9.54c2.49-2.48,5.62-3.73,9.35-3.73c2.54,0,5.72,0.75,7.85,1.79l0.1,8.7l-2.44,0.3l-1.49-2.98
				c-0.55-1.09-1.39-2.78-2.54-5.02c-0.48-0.15-0.99-0.22-1.49-0.2c-3.43,0-5.42,3.08-5.42,8.46c0,5.52,2.48,8.95,6.51,8.95
				c2.59,0,4.37-0.85,6.61-3.18L106.54,191z"/>
			<path class="st0" d="M121.4,196.62v1.69h-13.47v-1.69l3.08-1.54v-28.53l-3.33-0.85v-2.14l10.69-2.14l0.2,0.15v22.92l8.3-6.56
				l-3.03-1.64v-1.99h11.13v2.04l-4.13,1.64l-5.47,3.93l8.85,13.47l1.94,1.19v1.74h-9.44l-7.21-12.23l-0.95,0.64v8.35L121.4,196.62z
				"/>
			<path class="st0" d="M161.02,176.54c1.69,2.14,2.53,4.82,2.53,8.15c0,4.32-1.14,7.75-3.48,10.29c-2.34,2.54-5.57,3.82-9.79,3.82
				c-2.39,0-5.02-0.55-7.66-1.69l-2.14,1.69l-1.24-0.4v-31.86l-3.33-0.85v-2.14l10.69-2.14l0.2,0.15v15.81
				c1.54-2.53,4.37-4.03,7.55-4.03C157.09,173.35,159.28,174.4,161.02,176.54z M150.58,177.63c-1.59,0-3.23,1.14-3.78,2.34v15.46
				c0.75,0.35,1.84,0.55,2.83,0.55c3.97,0,6.11-3.33,6.11-9.49C155.75,180.91,153.76,177.63,150.58,177.63L150.58,177.63z"/>
			<path class="st0" d="M178.66,196.62v1.69h-13.72v-1.69l3.08-1.54v-28.53l-3.33-0.85v-2.14l10.69-2.14l0.2,0.15v33.5
				L178.66,196.62z"/>
			<path class="st0" d="M205.41,196.17c-1.83,1.78-4.3,2.77-6.86,2.73c-2.38,0-4.08-1.69-4.08-3.93v-0.1
				c-1.74,2.64-4.22,4.03-7.16,4.03c-3.78,0-6.36-2.54-6.36-6.31c0-3.18,1.74-5.47,5.12-6.86c2.04-0.8,4.67-1.24,8.4-1.44v-0.8
				c0-1.64-0.3-2.68-0.89-3.48c-0.8-0.99-2.19-1.59-3.78-1.59c-2.24,0-4.18,1.04-6.36,3.68l-1.34-0.75c1.94-5.02,5.72-8,10.44-8
				c3.43,0,6.16,1.19,7.8,3.53c1,1.39,1.49,3.23,1.49,5.67v10.84c0,1.19,0.6,1.79,1.64,1.79c0.46-0.01,0.92-0.11,1.34-0.3
				L205.41,196.17z M188.5,191.35c0,2.04,1.14,3.23,3.08,3.23c1.04,0,1.89-0.3,2.88-1.24v-6.86c-2.04,0.05-3.53,0.55-4.57,1.39
				C188.95,188.62,188.5,189.76,188.5,191.35L188.5,191.35z"/>
			<path class="st0" d="M210.13,174.15h19.49l0.8,1.54l-12.98,20.03l7.41-0.1l3.83-6.86l1.54,0.15l0.25,9.05l-0.3,0.35h-21.03
				l-0.65-1.69l13.02-20.03l-6.51,0.05l-4.03,6.26l-1.74-0.2l0.65-8.25L210.13,174.15z"/>
			<path class="st0" d="M255.41,190.9c-1.59,4.97-5.92,8-11.13,8c-3.38,0-6.07-1.14-8.11-3.38c-2.04-2.24-3.03-5.22-3.03-8.85
				c0-3.73,1.19-6.9,3.58-9.49c2.34-2.54,5.18-3.83,8.5-3.83c4.32,0,7.46,1.49,9.1,4.27c0.85,1.44,1.34,3.33,1.34,5.57
				c0,0.6-0.03,1.2-0.1,1.79l-14.91-0.05c0.15,5.32,2.73,8.4,6.86,8.4c1.07,0.01,2.14-0.19,3.13-0.6c0.89-0.4,2.14-1.24,3.68-2.59
				L255.41,190.9z M240.7,182.6l7.6-0.1c0-4.03-1.34-6.71-3.38-6.71C242.49,175.79,241.04,178.07,240.7,182.6z"/>
		</g>
	</g>
	<g>
		<path class="st0" d="M158.16,130.91c-3.97,1.27-12.56,1.95-17.02-3.57c-5.44-6.73-1.54-12.01-4.85-11.25
			c-12.91,2.98-18.8-5.23-19.8-7.5c-0.01-0.01-0.54-1.57-0.75-0.16c0,0.02-0.01,0.05-0.02,0.07c0,0.01,0,0.02,0,0.02l0,0.01
			c-0.41,1.93-0.59,6.51,0.41,10.6c1.26,5.15,5.06,13.93,15.75,18.31c8.99,3.69,20.41,1.93,28.02-5.81
			C161.79,129.69,161.36,129.88,158.16,130.91z"/>
		<path class="st0" d="M137.82,59.32c-3-3.69-6.1-5.7-6.1-5.7c2.33,4.82,5.59,14.57-4.96,25.61l0,0
			c-6.46,6.71-10.99,13.74-8.39,21.65c1.3,3.94,4.24,8.95,10.31,9.94c2.18,0.36,4.79,0,6.21-0.5c8.76-3.05,7.49-12.19,5.55-18.02
			c-0.25-0.76-0.68-2.62-0.84-3.3c-1.33-5.72,2.77-9.48,4.03-13.58c0.1-0.33,0.19-0.65,0.25-0.97c0.15-0.75,0.24-1.51,0.28-2.28
			C144.16,65.65,140.63,62.78,137.82,59.32z"/>
		<path class="st0" d="M167.18,111.51c-0.47-5.64-2.91-9.83-9.83-17.71c-3.43-3.9-5.74-8.6-5.58-12.16
			c0.49-4.31,2.35-6.54,2.35-6.54s-2.53,1.2-4.35,3.15c-1.59,1.72-3.08,3.14-4.62,6.64c-0.1,0.5-0.19,1.02-0.27,1.56
			c-0.83,5.86,4.1,11.23,2.57,18.53c-0.4,1.91-1.27,2.54-2.79,5.84c-1.82,3.95-1.37,9.24,1.28,12.6c2.4,3.03,6.71,4.4,10.9,3.39
			C164.36,125.01,167.78,118.66,167.18,111.51z"/>
	</g>
</g>
</svg>
